<svg width="200" height="200" viewBox="0 0 200 200" fill="none" xmlns="http://www.w3.org/2000/svg">
<rect width="200" height="200" rx="100" fill="#F1F5F9"/>
<path d="M113.5 155.8C108.967 155.8 105.033 155.267 101.7 154.2C98.4333 153.133 95.8667 151.2 94 148.4C92.2 145.6 91.3 141.6 91.3 136.4V125.2H106.6V137.1C106.6 139.033 107.133 140.5 108.2 141.5C109.333 142.567 110.867 143.1 112.8 143.1H123.7V155.8H113.5ZM99.2 135.9C92.6 135.9 86.8333 134.767 81.9 132.5C77.0333 130.167 73 127.133 69.8 123.4C66.6 119.6 64.2 115.5 62.6 111.1C61.0667 106.7 60.3 102.467 60.3 98.4V96.2C60.3 91.6667 61.1 87.2 62.7 82.8C64.3667 78.3333 66.8333 74.3 70.1 70.7C73.3667 67.1 77.4333 64.2333 82.3 62.1C87.1667 59.9 92.8 58.8 99.2 58.8C105.6 58.8 111.233 59.9 116.1 62.1C120.967 64.2333 125.033 67.1 128.3 70.7C131.567 74.3 134.033 78.3333 135.7 82.8C137.367 87.2 138.2 91.6667 138.2 96.2V98.4C138.2 102.467 137.4 106.7 135.8 111.1C134.2 115.5 131.8 119.6 128.6 123.4C125.4 127.133 121.333 130.167 116.4 132.5C111.533 134.767 105.8 135.9 99.2 135.9ZM99.2 120.6C102.667 120.6 105.767 120 108.5 118.8C111.3 117.6 113.667 115.933 115.6 113.8C117.6 111.667 119.1 109.2 120.1 106.4C121.1 103.6 121.6 100.6 121.6 97.4C121.6 94 121.067 90.9 120 88.1C119 85.2333 117.5 82.7667 115.5 80.7C113.567 78.5667 111.233 76.9333 108.5 75.8C105.767 74.6667 102.667 74.1 99.2 74.1C95.7333 74.1 92.6333 74.6667 89.9 75.8C87.1667 76.9333 84.8 78.5667 82.8 80.7C80.8667 82.7667 79.4 85.2333 78.4 88.1C77.4 90.9 76.9 94 76.9 97.4C76.9 100.6 77.4 103.6 78.4 106.4C79.4 109.2 80.8667 111.667 82.8 113.8C84.8 115.933 87.1667 117.6 89.9 118.8C92.6333 120 95.7333 120.6 99.2 120.6Z" fill="#1E293B"/>
</svg>
